<svg width="150" height="36" fill="none" xmlns="http://www.w3.org/2000/svg"><path d="M15.848 22.625l-1.62-2.34H12.44v2.34h-1.944v-8.4h3.636c.744 0 1.388.124 1.932.372.552.248.976.6 1.272 1.056.296.456.444.996.444 1.62 0 .624-.152 1.164-.456 1.62-.296.448-.72.792-1.272 1.032l1.884 2.7h-2.088zm-.036-5.352c0-.472-.152-.832-.456-1.08-.304-.256-.748-.384-1.332-.384H12.44v2.928h1.584c.584 0 1.028-.128 1.332-.384.304-.256.456-.616.456-1.08zm12.412 3.792v1.56H21.72v-8.4h6.348v1.56h-4.416v1.824h3.9v1.512h-3.9v1.944h4.572zm3.947-6.84h1.944v6.816h4.212v1.584h-6.156v-8.4zm16.146 6.84v1.56h-6.504v-8.4h6.348v1.56h-4.416v1.824h3.9v1.512h-3.9v1.944h4.572zm11.906-6.84l-3.636 8.4h-1.92l-3.624-8.4h2.1l2.556 6 2.592-6h1.932zm8.352 6.6h-3.9l-.744 1.8h-1.992l3.744-8.4h1.92l3.756 8.4h-2.04l-.744-1.8zm-.612-1.476l-1.332-3.216-1.332 3.216h2.664zm14.371-5.124v8.4h-1.596l-4.188-5.1v5.1h-1.92v-8.4h1.608l4.176 5.1v-5.1h1.92zm6.128 1.584h-2.688v-1.584h7.32v1.584h-2.688v6.816h-1.944v-6.816zm21.58-1.584v8.4h-1.596l-4.188-5.1v5.1h-1.92v-8.4h1.608l4.176 5.1v-5.1h1.92zm8.456 8.544c-.872 0-1.66-.188-2.364-.564a4.255 4.255 0 01-1.644-1.548c-.392-.664-.588-1.408-.588-2.232 0-.824.196-1.564.588-2.22.4-.664.948-1.184 1.644-1.56.704-.376 1.492-.564 2.364-.564.872 0 1.656.188 2.352.564a4.226 4.226 0 011.644 1.56c.4.656.6 1.396.6 2.22 0 .824-.2 1.568-.6 2.232a4.255 4.255 0 01-1.644 1.548c-.696.376-1.48.564-2.352.564zm0-1.656c.496 0 .944-.112 1.344-.336.4-.232.712-.552.936-.96.232-.408.348-.872.348-1.392 0-.52-.116-.984-.348-1.392a2.372 2.372 0 00-.936-.948 2.63 2.63 0 00-1.344-.348 2.63 2.63 0 00-1.344.348c-.4.224-.716.54-.948.948a2.844 2.844 0 00-.336 1.392c0 .52.112.984.336 1.392.232.408.548.728.948.96.4.224.848.336 1.344.336zm20.871-6.888l-2.748 8.4h-2.088l-1.848-5.688-1.908 5.688h-2.076l-2.76-8.4h2.016l1.896 5.904 1.98-5.904h1.8l1.92 5.952 1.956-5.952h1.86z" fill="#000" fill-opacity=".2"/><path stroke="#000" stroke-opacity=".2" d="M.5 1.125h149v34H.5z"/></svg>