<svg width="178" height="101" viewBox="0 0 178 101" fill="none" xmlns="http://www.w3.org/2000/svg">
<path d="M21.92 91.97L23.5234 89.4344L23.5234 89.4344L21.92 91.97ZM8.01 75.85L5.28807 77.1114L5.29738 77.1315L5.307 77.1514L8.01 75.85ZM8.01 25.28L5.30081 23.9915L5.2974 23.9986L5.29403 24.0058L8.01 25.28ZM21.92 9.03L23.5234 11.5656L23.5234 11.5656L21.92 9.03ZM62.22 9.03L60.6166 11.5656L60.6166 11.5656L62.22 9.03ZM76 25.28L73.2781 26.5414L73.2874 26.5615L73.297 26.5814L76 25.28ZM76 75.85L73.2908 74.5615L73.2874 74.5687L73.284 74.5758L76 75.85ZM62.22 91.97L60.6166 89.4344L60.6166 89.4344L62.22 91.97ZM55.07 72.6L52.5808 70.9255L52.5703 70.9412L52.5599 70.957L55.07 72.6ZM55.07 28.4L52.5599 30.043L52.5703 30.0588L52.5808 30.0745L55.07 28.4ZM29.07 28.4L26.5808 26.7255L26.5703 26.7412L26.5599 26.757L29.07 28.4ZM29.07 72.6L26.5599 74.243L26.5703 74.2588L26.5808 74.2745L29.07 72.6ZM42.07 94.56C35.0496 94.56 28.8979 92.833 23.5234 89.4344L20.3166 94.5056C26.7288 98.5603 34.0104 100.56 42.07 100.56V94.56ZM23.5234 89.4344C18.1592 86.0424 13.8787 81.1235 10.713 74.5486L5.307 77.1514C8.90126 84.6165 13.8941 90.4443 20.3166 94.5056L23.5234 89.4344ZM10.7319 74.5886C7.66165 67.9633 6.07 59.9637 6.07 50.5H0.0700001C0.0700001 60.623 1.77168 69.5234 5.28807 77.1114L10.7319 74.5886ZM6.07 50.5C6.07 41.0348 7.66215 33.0849 10.726 26.5542L5.29403 24.0058C1.77118 31.5151 0.0700001 40.3785 0.0700001 50.5H6.07ZM10.7192 26.5685C13.888 19.906 18.1687 14.9516 23.5234 11.5656L20.3166 6.49442C13.8847 10.5617 8.89204 16.4407 5.30081 23.9915L10.7192 26.5685ZM23.5234 11.5656C28.8979 8.16699 35.0496 6.44 42.07 6.44V0.439998C34.0104 0.439998 26.7288 2.43967 20.3166 6.49442L23.5234 11.5656ZM42.07 6.44C49.0904 6.44 55.2421 8.16699 60.6166 11.5656L63.8234 6.49442C57.4112 2.43967 50.1296 0.439998 42.07 0.439998V6.44ZM60.6166 11.5656C65.9638 14.9469 70.1964 19.8916 73.2781 26.5414L78.7219 24.0186C75.2169 16.4551 70.2629 10.5664 63.8234 6.49442L60.6166 11.5656ZM73.297 26.5814C76.4379 33.1049 78.07 41.0447 78.07 50.5H84.07C84.07 40.3687 82.3221 31.4951 78.703 23.9785L73.297 26.5814ZM78.07 50.5C78.07 59.9538 76.4384 67.9434 73.2908 74.5615L78.7092 77.1385C82.3216 69.5432 84.07 60.6328 84.07 50.5H78.07ZM73.284 74.5758C70.2055 81.1379 65.9733 86.0471 60.6166 89.4344L63.8234 94.5056C70.2534 90.4395 75.2078 84.6021 78.716 77.1242L73.284 74.5758ZM60.6166 89.4344C55.2421 92.833 49.0904 94.56 42.07 94.56V100.56C50.1296 100.56 57.4112 98.5603 63.8234 94.5056L60.6166 89.4344ZM42.07 82.75C48.6613 82.75 53.924 79.8287 57.5801 74.243L52.5599 70.957C49.976 74.9046 46.572 76.75 42.07 76.75V82.75ZM57.5592 74.2745C61.2639 68.7674 62.88 60.6757 62.88 50.5H56.88C56.88 60.2576 55.2894 66.8992 52.5808 70.9255L57.5592 74.2745ZM62.88 50.5C62.88 40.3243 61.2639 32.2326 57.5592 26.7255L52.5808 30.0745C55.2894 34.1008 56.88 40.7424 56.88 50.5H62.88ZM57.5801 26.757C53.924 21.1713 48.6613 18.25 42.07 18.25V24.25C46.572 24.25 49.976 26.0954 52.5599 30.043L57.5801 26.757ZM42.07 18.25C35.5508 18.25 30.3102 21.1818 26.5808 26.7255L31.5592 30.0745C34.2431 26.0849 37.6692 24.25 42.07 24.25V18.25ZM26.5599 26.757C22.9603 32.2565 21.39 40.3338 21.39 50.5H27.39C27.39 40.7328 28.9397 34.0769 31.5801 30.043L26.5599 26.757ZM21.39 50.5C21.39 60.6662 22.9603 68.7435 26.5599 74.243L31.5801 70.957C28.9397 66.9231 27.39 60.2672 27.39 50.5H21.39ZM26.5808 74.2745C30.3102 79.8182 35.5508 82.75 42.07 82.75V76.75C37.6692 76.75 34.2431 74.9151 31.5592 70.9255L26.5808 74.2745ZM174.632 76.89V79.89H177.632V76.89H174.632ZM159.812 76.89V73.89H156.812V76.89H159.812ZM159.812 96V99H162.812V96H159.812ZM139.272 96H136.272V99H139.272V96ZM139.272 76.89H142.272V73.89H139.272V76.89ZM90.2624 76.89H87.2624V79.89H90.2624V76.89ZM90.2624 62.72L87.8546 60.9304L87.2624 61.7272V62.72H90.2624ZM133.162 4.99999V1.99999H131.654L130.755 3.21042L133.162 4.99999ZM155.262 4.99999L157.689 6.76382L161.152 1.99999H155.262V4.99999ZM115.482 59.73L113.056 57.9662L109.593 62.73H115.482V59.73ZM139.922 59.73V62.73H142.922V59.73H139.922ZM139.922 42.7V39.7H136.922V42.7H139.922ZM159.812 42.7H162.812V39.7H159.812V42.7ZM159.812 59.73H156.812V62.73H159.812V59.73ZM174.632 59.73H177.632V56.73H174.632V59.73ZM174.632 73.89H159.812V79.89H174.632V73.89ZM156.812 76.89V96H162.812V76.89H156.812ZM159.812 93H139.272V99H159.812V93ZM142.272 96V76.89H136.272V96H142.272ZM139.272 73.89H90.2624V79.89H139.272V73.89ZM93.2624 76.89V62.72H87.2624V76.89H93.2624ZM92.6702 64.5096L135.57 6.78956L130.755 3.21042L87.8546 60.9304L92.6702 64.5096ZM133.162 7.99999H155.262V1.99999H133.162V7.99999ZM152.836 3.23616L113.056 57.9662L117.909 61.4938L157.689 6.76382L152.836 3.23616ZM115.482 62.73H139.922V56.73H115.482V62.73ZM142.922 59.73V42.7H136.922V59.73H142.922ZM139.922 45.7H159.812V39.7H139.922V45.7ZM156.812 42.7V59.73H162.812V42.7H156.812ZM159.812 62.73H174.632V56.73H159.812V62.73ZM171.632 59.73V76.89H177.632V59.73H171.632Z" fill="#FF57C6"/>
<path d="M21.92 91.97L23.5234 89.4344L23.5234 89.4344L21.92 91.97ZM8.01 75.85L5.28807 77.1114L5.29738 77.1315L5.307 77.1514L8.01 75.85ZM8.01 25.28L5.30081 23.9915L5.2974 23.9986L5.29403 24.0058L8.01 25.28ZM21.92 9.03L23.5234 11.5656L23.5234 11.5656L21.92 9.03ZM62.22 9.03L60.6166 11.5656L60.6166 11.5656L62.22 9.03ZM76 25.28L73.2781 26.5414L73.2874 26.5615L73.297 26.5814L76 25.28ZM76 75.85L73.2908 74.5615L73.2874 74.5687L73.284 74.5758L76 75.85ZM62.22 91.97L60.6166 89.4344L60.6166 89.4344L62.22 91.97ZM55.07 72.6L52.5808 70.9255L52.5703 70.9412L52.5599 70.957L55.07 72.6ZM55.07 28.4L52.5599 30.043L52.5703 30.0588L52.5808 30.0745L55.07 28.4ZM29.07 28.4L26.5808 26.7255L26.5703 26.7412L26.5599 26.757L29.07 28.4ZM29.07 72.6L26.5599 74.243L26.5703 74.2588L26.5808 74.2745L29.07 72.6ZM42.07 94.56C35.0496 94.56 28.8979 92.833 23.5234 89.4344L20.3166 94.5056C26.7288 98.5603 34.0104 100.56 42.07 100.56V94.56ZM23.5234 89.4344C18.1592 86.0424 13.8787 81.1235 10.713 74.5486L5.307 77.1514C8.90126 84.6165 13.8941 90.4443 20.3166 94.5056L23.5234 89.4344ZM10.7319 74.5886C7.66165 67.9633 6.07 59.9637 6.07 50.5H0.0700001C0.0700001 60.623 1.77168 69.5234 5.28807 77.1114L10.7319 74.5886ZM6.07 50.5C6.07 41.0348 7.66215 33.0849 10.726 26.5542L5.29403 24.0058C1.77118 31.5151 0.0700001 40.3785 0.0700001 50.5H6.07ZM10.7192 26.5685C13.888 19.906 18.1687 14.9516 23.5234 11.5656L20.3166 6.49442C13.8847 10.5617 8.89204 16.4407 5.30081 23.9915L10.7192 26.5685ZM23.5234 11.5656C28.8979 8.16699 35.0496 6.44 42.07 6.44V0.439998C34.0104 0.439998 26.7288 2.43967 20.3166 6.49442L23.5234 11.5656ZM42.07 6.44C49.0904 6.44 55.2421 8.16699 60.6166 11.5656L63.8234 6.49442C57.4112 2.43967 50.1296 0.439998 42.07 0.439998V6.44ZM60.6166 11.5656C65.9638 14.9469 70.1964 19.8916 73.2781 26.5414L78.7219 24.0186C75.2169 16.4551 70.2629 10.5664 63.8234 6.49442L60.6166 11.5656ZM73.297 26.5814C76.4379 33.1049 78.07 41.0447 78.07 50.5H84.07C84.07 40.3687 82.3221 31.4951 78.703 23.9785L73.297 26.5814ZM78.07 50.5C78.07 59.9538 76.4384 67.9434 73.2908 74.5615L78.7092 77.1385C82.3216 69.5432 84.07 60.6328 84.07 50.5H78.07ZM73.284 74.5758C70.2055 81.1379 65.9733 86.0471 60.6166 89.4344L63.8234 94.5056C70.2534 90.4395 75.2078 84.6021 78.716 77.1242L73.284 74.5758ZM60.6166 89.4344C55.2421 92.833 49.0904 94.56 42.07 94.56V100.56C50.1296 100.56 57.4112 98.5603 63.8234 94.5056L60.6166 89.4344ZM42.07 82.75C48.6613 82.75 53.924 79.8287 57.5801 74.243L52.5599 70.957C49.976 74.9046 46.572 76.75 42.07 76.75V82.75ZM57.5592 74.2745C61.2639 68.7674 62.88 60.6757 62.88 50.5H56.88C56.88 60.2576 55.2894 66.8992 52.5808 70.9255L57.5592 74.2745ZM62.88 50.5C62.88 40.3243 61.2639 32.2326 57.5592 26.7255L52.5808 30.0745C55.2894 34.1008 56.88 40.7424 56.88 50.5H62.88ZM57.5801 26.757C53.924 21.1713 48.6613 18.25 42.07 18.25V24.25C46.572 24.25 49.976 26.0954 52.5599 30.043L57.5801 26.757ZM42.07 18.25C35.5508 18.25 30.3102 21.1818 26.5808 26.7255L31.5592 30.0745C34.2431 26.0849 37.6692 24.25 42.07 24.25V18.25ZM26.5599 26.757C22.9603 32.2565 21.39 40.3338 21.39 50.5H27.39C27.39 40.7328 28.9397 34.0769 31.5801 30.043L26.5599 26.757ZM21.39 50.5C21.39 60.6662 22.9603 68.7435 26.5599 74.243L31.5801 70.957C28.9397 66.9231 27.39 60.2672 27.39 50.5H21.39ZM26.5808 74.2745C30.3102 79.8182 35.5508 82.75 42.07 82.75V76.75C37.6692 76.75 34.2431 74.9151 31.5592 70.9255L26.5808 74.2745ZM174.632 76.89V79.89H177.632V76.89H174.632ZM159.812 76.89V73.89H156.812V76.89H159.812ZM159.812 96V99H162.812V96H159.812ZM139.272 96H136.272V99H139.272V96ZM139.272 76.89H142.272V73.89H139.272V76.89ZM90.2624 76.89H87.2624V79.89H90.2624V76.89ZM90.2624 62.72L87.8546 60.9304L87.2624 61.7272V62.72H90.2624ZM133.162 4.99999V1.99999H131.654L130.755 3.21042L133.162 4.99999ZM155.262 4.99999L157.689 6.76382L161.152 1.99999H155.262V4.99999ZM115.482 59.73L113.056 57.9662L109.593 62.73H115.482V59.73ZM139.922 59.73V62.73H142.922V59.73H139.922ZM139.922 42.7V39.7H136.922V42.7H139.922ZM159.812 42.7H162.812V39.7H159.812V42.7ZM159.812 59.73H156.812V62.73H159.812V59.73ZM174.632 59.73H177.632V56.73H174.632V59.73ZM174.632 73.89H159.812V79.89H174.632V73.89ZM156.812 76.89V96H162.812V76.89H156.812ZM159.812 93H139.272V99H159.812V93ZM142.272 96V76.89H136.272V96H142.272ZM139.272 73.89H90.2624V79.89H139.272V73.89ZM93.2624 76.89V62.72H87.2624V76.89H93.2624ZM92.6702 64.5096L135.57 6.78956L130.755 3.21042L87.8546 60.9304L92.6702 64.5096ZM133.162 7.99999H155.262V1.99999H133.162V7.99999ZM152.836 3.23616L113.056 57.9662L117.909 61.4938L157.689 6.76382L152.836 3.23616ZM115.482 62.73H139.922V56.73H115.482V62.73ZM142.922 59.73V42.7H136.922V59.73H142.922ZM139.922 45.7H159.812V39.7H139.922V45.7ZM156.812 42.7V59.73H162.812V42.7H156.812ZM159.812 62.73H174.632V56.73H159.812V62.73ZM171.632 59.73V76.89H177.632V59.73H171.632Z" fill="url(#paint0_linear)"/>
<defs>
<linearGradient id="paint0_linear" x1="-56" y1="19.5" x2="252.219" y2="80.1427" gradientUnits="userSpaceOnUse">
<stop stop-color="#FFA800"/>
<stop offset="0.546875" stop-color="#FF57C6"/>
<stop offset="1" stop-color="#10E6D9"/>
</linearGradient>
</defs>
</svg>
