<svg width="143" height="30" viewBox="0 0 143 30" fill="none" xmlns="http://www.w3.org/2000/svg">
<path fill-rule="evenodd" clip-rule="evenodd" d="M3.53855 14.8391L21.2485 4.69109V0.625L0 12.8147V16.8808L21.2485 29.0532L31.8555 22.9627V18.8966L21.2485 24.9871L3.53855 14.8391ZM28.317 12.8147L17.6927 18.9052L21.2399 20.9468L28.317 16.8808V12.8147ZM24.7785 6.71553L10.6243 14.8391L14.1628 16.8808L24.7871 10.7816V6.71553H24.7785Z" fill="#FF8A00"/>
<path d="M55.3086 18.1905V20.8783H44.1161V6.40576H55.0503V9.09352H47.4394V12.2378H54.1549V14.8395H47.4394V18.1905H55.3086Z" fill="#362C50"/>
<path d="M73.7424 6.40527L67.4832 20.8778H64.1771L57.9352 6.40527H61.5512L65.9507 16.7428L70.4105 6.40527H73.7424Z" fill="#362C50"/>
<path d="M88.2054 18.1901V20.8778H77.0043V6.40527H87.9385V9.09303H80.3362V12.2374H87.0517V14.839H80.3362V18.1901H88.2054Z" fill="#362C50"/>
<path d="M102.154 20.8778L99.3648 16.8462H99.2012H96.2912V20.8778H92.942V6.40527H99.2012C100.484 6.40527 101.595 6.62064 102.542 7.04275C103.489 7.47348 104.212 8.07651 104.72 8.86044C105.228 9.64437 105.486 10.5747 105.486 11.6516C105.486 12.7284 105.228 13.6502 104.711 14.4341C104.195 15.2094 103.463 15.8124 102.507 16.2259L105.753 20.8778H102.154ZM101.311 9.7822C100.785 9.35147 100.019 9.12749 99.0204 9.12749H96.2912V14.1756H99.0118C100.019 14.1756 100.785 13.9517 101.302 13.5123C101.827 13.073 102.085 12.4527 102.085 11.6516C102.094 10.8418 101.836 10.2215 101.311 9.7822Z" fill="#362C50"/>
<path d="M119.716 17.7766H113.001L111.718 20.8778H108.291L114.74 6.40527H118.046L124.512 20.8778H120.999L119.716 17.7766ZM118.666 15.2352L116.376 9.69605L114.085 15.2352H118.666Z" fill="#362C50"/>
<path d="M128.085 6.40527H134.654C136.221 6.40527 137.616 6.70678 138.821 7.30119C140.027 7.90421 140.965 8.74845 141.628 9.83389C142.3 10.9193 142.627 12.1943 142.627 13.6415C142.627 15.0888 142.291 16.3551 141.628 17.4492C140.957 18.5346 140.027 19.3789 138.821 19.9819C137.616 20.5849 136.23 20.8778 134.654 20.8778H128.085V6.40527ZM134.491 18.1298C135.937 18.1298 137.091 17.7249 137.952 16.9237C138.813 16.1225 139.243 15.0285 139.243 13.6502C139.243 12.2718 138.813 11.1778 137.952 10.3766C137.091 9.57545 135.937 9.17056 134.491 9.17056H131.434V18.147H134.491V18.1298Z" fill="#362C50"/>
</svg>
