<svg width="150" height="36" viewBox="0 0 150 36" fill="none" xmlns="http://www.w3.org/2000/svg">
<path d="M15.848 22.625L14.228 20.285H14.132H12.44V22.625H10.496V14.225H14.132C14.876 14.225 15.52 14.349 16.064 14.597C16.616 14.845 17.04 15.197 17.336 15.653C17.632 16.109 17.78 16.649 17.78 17.273C17.78 17.897 17.628 18.437 17.324 18.893C17.028 19.341 16.604 19.685 16.052 19.925L17.936 22.625H15.848ZM15.812 17.273C15.812 16.801 15.66 16.441 15.356 16.193C15.052 15.937 14.608 15.809 14.024 15.809H12.44V18.737H14.024C14.608 18.737 15.052 18.609 15.356 18.353C15.66 18.097 15.812 17.737 15.812 17.273ZM28.2242 21.065V22.625H21.7202V14.225H28.0682V15.785H23.6522V17.609H27.5522V19.121H23.6522V21.065H28.2242ZM32.171 14.225H34.115V21.041H38.327V22.625H32.171V14.225ZM48.3172 21.065V22.625H41.8132V14.225H48.1612V15.785H43.7452V17.609H47.6452V19.121H43.7452V21.065H48.3172ZM60.2228 14.225L56.5868 22.625H54.6668L51.0428 14.225H53.1428L55.6988 20.225L58.2908 14.225H60.2228ZM68.5749 20.825H64.6749L63.9309 22.625H61.9389L65.6829 14.225H67.6029L71.3589 22.625H69.3189L68.5749 20.825ZM67.9629 19.349L66.6309 16.133L65.2989 19.349H67.9629ZM82.3344 14.225V22.625H80.7384L76.5504 17.525V22.625H74.6304V14.225H76.2384L80.4144 19.325V14.225H82.3344ZM88.4618 15.809H85.7738V14.225H93.0938V15.809H90.4058V22.625H88.4618V15.809ZM110.042 14.225V22.625H108.446L104.258 17.525V22.625H102.338V14.225H103.946L108.122 19.325V14.225H110.042ZM118.498 22.769C117.626 22.769 116.838 22.581 116.134 22.205C115.438 21.829 114.89 21.313 114.49 20.657C114.098 19.993 113.902 19.249 113.902 18.425C113.902 17.601 114.098 16.861 114.49 16.205C114.89 15.541 115.438 15.021 116.134 14.645C116.838 14.269 117.626 14.081 118.498 14.081C119.37 14.081 120.154 14.269 120.85 14.645C121.546 15.021 122.094 15.541 122.494 16.205C122.894 16.861 123.094 17.601 123.094 18.425C123.094 19.249 122.894 19.993 122.494 20.657C122.094 21.313 121.546 21.829 120.85 22.205C120.154 22.581 119.37 22.769 118.498 22.769ZM118.498 21.113C118.994 21.113 119.442 21.001 119.842 20.777C120.242 20.545 120.554 20.225 120.778 19.817C121.01 19.409 121.126 18.945 121.126 18.425C121.126 17.905 121.01 17.441 120.778 17.033C120.554 16.625 120.242 16.309 119.842 16.085C119.442 15.853 118.994 15.737 118.498 15.737C118.002 15.737 117.554 15.853 117.154 16.085C116.754 16.309 116.438 16.625 116.206 17.033C115.982 17.441 115.87 17.905 115.87 18.425C115.87 18.945 115.982 19.409 116.206 19.817C116.438 20.225 116.754 20.545 117.154 20.777C117.554 21.001 118.002 21.113 118.498 21.113ZM139.369 14.225L136.621 22.625H134.533L132.685 16.937L130.777 22.625H128.701L125.941 14.225H127.957L129.853 20.129L131.833 14.225H133.633L135.553 20.177L137.509 14.225H139.369Z" fill="black" fill-opacity="0.2"/>
<rect x="0.5" y="1.125" width="149" height="34" stroke="black" stroke-opacity="0.2"/>
</svg>
