<svg width="201" height="23" viewBox="0 0 201 23" fill="none" xmlns="http://www.w3.org/2000/svg">
<path d="M0 11.5035C0 17.8546 5.04215 23 11.2505 23C16.3132 23 20.6008 19.5861 22.0071 14.8824H12.5333C12.5265 14.8824 12.5265 14.8824 12.5265 14.8824C10.7017 14.8824 9.21307 13.3682 9.21307 11.5035C9.21307 9.63883 10.6948 8.11765 12.5265 8.11765H22.014C20.6008 3.42091 16.3201 0 11.2574 0C5.04215 0 0 5.15239 0 11.5035ZM46.7788 11.4965C46.7788 5.14538 41.7367 0 35.5283 0C30.4656 0 26.1849 3.42091 24.7717 8.11765H32.6608V4.97714L41.9013 11.4124L32.6608 18.0299V14.8824H24.7717C26.1849 19.5861 30.4656 23 35.5283 23C41.7367 23 46.7788 17.8616 46.7788 11.5105C46.7857 17.8616 51.821 23 58.0362 23C64.2514 23 69.2867 17.8546 69.2867 11.5035C69.2935 5.15239 64.2514 0 58.0362 0C51.8278 0 46.7857 5.14538 46.7788 11.4965Z" fill="#7AB341"/>
<path d="M72.854 17.4269L74.9052 14.9102C76.3252 16.109 77.8207 16.8731 79.6249 16.8731C81.0518 16.8731 81.9024 16.2982 81.9024 15.3519V15.3098C81.9024 14.4055 81.3605 13.9429 78.7194 13.2559C75.5363 12.4287 73.4783 11.5314 73.4783 8.32079V8.27172C73.4783 5.34151 75.7833 3.40674 79.0075 3.40674C81.3056 3.40674 83.2744 4.14279 84.8728 5.46068L83.0686 8.13152C81.6692 7.1431 80.2903 6.54023 78.9595 6.54023C77.6286 6.54023 76.9289 7.16413 76.9289 7.94925V7.99832C76.9289 9.05684 77.608 9.40034 80.3383 10.1154C83.542 10.9636 85.353 12.1483 85.353 14.9593V15.0014C85.353 18.212 82.9589 20.0136 79.5494 20.0136C77.1621 20.0136 74.7474 19.1583 72.854 17.4269Z" fill="#424241"/>
<path d="M93.496 15.4222V14.7983C92.906 14.5179 92.1445 14.3357 91.3076 14.3357C89.8396 14.3357 88.934 14.9385 88.934 16.0391V16.0812C88.934 17.0275 89.7023 17.5813 90.8068 17.5813C92.4121 17.5883 93.496 16.691 93.496 15.4222ZM85.6206 16.2284V16.1793C85.6206 13.4804 87.6306 12.2327 90.4981 12.2327C91.7192 12.2327 92.5973 12.443 93.4548 12.7374V12.5341C93.4548 11.076 92.5699 10.2698 90.8617 10.2698C89.5514 10.2698 88.6253 10.5222 87.5208 10.9358L86.6633 8.26496C87.9942 7.66209 89.3045 7.26953 91.3556 7.26953C93.2284 7.26953 94.5867 7.77426 95.4442 8.65752C96.3498 9.58285 96.7545 10.9428 96.7545 12.6042V19.7755H93.4342V18.4366C92.5973 19.3829 91.4448 20.0068 89.7778 20.0068C87.4934 20.0138 85.6206 18.6749 85.6206 16.2284Z" fill="#424241"/>
<path d="M100.877 2.94434H97.4473V19.7895H100.877V2.94434Z" fill="#424241"/>
<path d="M109.912 12.6319C109.706 11.0616 108.808 10.0031 107.36 10.0031C105.94 10.0031 105.014 11.0406 104.74 12.6319H109.912ZM101.378 13.6694V13.6203C101.378 10.0942 103.834 7.18506 107.36 7.18506C111.401 7.18506 113.253 10.3887 113.253 13.9007C113.253 14.1741 113.226 14.4965 113.205 14.826H104.788C105.124 16.4173 106.208 17.2515 107.744 17.2515C108.897 17.2515 109.734 16.88 110.68 15.9827L112.642 17.7562C111.517 19.1863 109.892 20.0625 107.696 20.0625C104.06 20.0555 101.378 17.4548 101.378 13.6694Z" fill="#424241"/>
<path d="M112.828 18.142L114.296 15.8357C115.606 16.8101 116.978 17.3148 118.11 17.3148C119.105 17.3148 119.557 16.9433 119.557 16.3895V16.3404C119.557 15.5763 118.384 15.324 117.047 14.9104C115.352 14.4057 113.438 13.5995 113.438 11.2021V11.153C113.438 8.63639 115.428 7.23438 117.863 7.23438C119.4 7.23438 121.067 7.76013 122.377 8.66443L121.067 11.0899C119.873 10.3749 118.679 9.93325 117.801 9.93325C116.964 9.93325 116.539 10.3048 116.539 10.7885V10.8375C116.539 11.5315 117.691 11.854 119.002 12.3167C120.696 12.8915 122.658 13.7257 122.658 15.9829V16.025C122.658 18.7729 120.648 20.0207 118.028 20.0207C116.326 20.0137 114.433 19.4389 112.828 18.142Z" fill="#424241"/>
<path d="M129.566 16.5788C132.406 16.5788 134.327 14.6159 134.327 11.7628V11.7068C134.327 8.84666 132.413 6.84178 129.566 6.84178H126.877V16.5717H129.566V16.5788ZM123.399 3.63818H129.566C134.533 3.63818 137.963 7.12218 137.963 11.6647V11.7138C137.963 16.2563 134.533 19.7894 129.566 19.7894H123.399V3.63818Z" fill="#7AB341"/>
<path d="M147.862 13.6694V13.6203C147.862 11.7977 146.572 10.2064 144.679 10.2064C142.717 10.2064 141.544 11.7556 141.544 13.5782V13.6203C141.544 15.4429 142.827 17.0342 144.727 17.0342C146.682 17.0342 147.862 15.492 147.862 13.6694ZM138.155 13.6694V13.6203C138.155 10.0662 140.954 7.18506 144.72 7.18506C148.466 7.18506 151.244 10.0171 151.244 13.5712V13.6133C151.244 17.1674 148.445 20.0485 144.672 20.0485C140.926 20.0555 138.155 17.2235 138.155 13.6694Z" fill="#7AB341"/>
<path d="M151.724 15.4218V7.42334H155.154V14.3142C155.154 15.9826 155.923 16.8308 157.226 16.8308C158.536 16.8308 159.373 15.9826 159.373 14.3142V7.42334H162.81V19.7821H159.373V18.0296C158.584 19.067 157.569 20.0134 155.834 20.0134C153.24 20.0134 151.724 18.2609 151.724 15.4218Z" fill="#7AB341"/>
<path d="M172.785 13.6203V13.5783C172.785 11.5243 171.433 10.1644 169.835 10.1644C168.229 10.1644 166.899 11.5243 166.899 13.5783V13.6203C166.899 15.6743 168.229 17.0342 169.835 17.0342C171.433 17.0342 172.785 15.6953 172.785 13.6203ZM166.94 18.1699V19.7822H163.51V2.93701H166.94V9.18998C167.777 8.04033 168.922 7.18511 170.713 7.18511C173.532 7.18511 176.215 9.44235 176.215 13.5783V13.6203C176.215 17.7493 173.58 20.0135 170.713 20.0135C168.881 20.0135 167.756 19.1583 166.94 18.1699Z" fill="#7AB341"/>
<path d="M180.461 2.94434H177.031V19.7895H180.461V2.94434Z" fill="#7AB341"/>
<path d="M189.722 12.6324C189.523 11.0621 188.617 10.0036 187.177 10.0036C185.757 10.0036 184.824 11.0411 184.556 12.6324H189.722ZM181.188 13.6699V13.6208C181.188 10.0947 183.644 7.18555 187.17 7.18555C191.211 7.18555 193.063 10.3891 193.063 13.9012C193.063 14.1746 193.035 14.497 193.015 14.8265H184.597C184.934 16.4178 186.017 17.252 187.561 17.252C188.713 17.252 189.544 16.8805 190.49 15.9832L192.452 17.7567C191.327 19.1868 189.701 20.063 187.513 20.063C183.877 20.056 181.188 17.4553 181.188 13.6699Z" fill="#7AB341"/>
<path d="M193.708 7.42409H197.138V9.91266C197.837 8.20221 198.969 7.10163 201 7.19276V10.859H200.815C198.537 10.859 197.138 12.261 197.138 15.2193V19.7898H193.708V7.42409Z" fill="#7AB341"/>
</svg>
