<svg width="114" height="59" viewBox="0 0 114 59" fill="none" xmlns="http://www.w3.org/2000/svg">
<path d="M77.7227 45.3316H82.9051V25.5893L77.7227 22.5825V45.3316Z" fill="#101010"/>
<path d="M31.089 17.6689C27.1858 17.6689 23.7874 19.8412 22.0208 23.0455C20.2541 19.8412 16.8576 17.6689 12.9525 17.6689C9.85264 17.6689 7.0784 19.0436 5.18075 21.2101V17.9942H0.000244141V45.3319H5.18267V29.059C5.18267 25.4637 8.08214 22.5498 11.6597 22.5498C15.2374 22.5498 18.1368 25.4637 18.1368 29.059V45.3319H23.3192V29.059C23.3192 25.4637 26.2187 22.5498 29.7963 22.5498C33.3739 22.5498 36.2734 25.4637 36.2734 29.059V45.3319H41.4558V28.0832C41.452 22.3311 36.8128 17.6689 31.089 17.6689Z" fill="#101010"/>
<path d="M108.815 10.5575V20.7801C106.424 18.8382 103.384 17.6707 100.07 17.6707C92.3796 17.6707 86.1453 23.936 86.1453 31.6648C86.1453 39.3937 92.3796 45.6589 100.07 45.6589C103.384 45.6589 106.424 44.4915 108.815 42.5496V45.3337H113.996V7.55078L108.815 10.5575ZM100.072 40.4508C95.2424 40.4508 91.3277 36.5167 91.3277 31.6629C91.3277 26.8091 95.2424 22.875 100.072 22.875C104.902 22.875 108.817 26.8091 108.817 31.6629C108.815 36.5167 104.9 40.4508 100.072 40.4508Z" fill="#101010"/>
<path d="M67.3619 16.5708V20.7799C64.971 18.838 61.9309 17.6705 58.6173 17.6705C50.9265 17.6705 44.6921 23.9357 44.6921 31.6646C44.6921 39.3935 50.9265 45.6587 58.6173 45.6587C61.9309 45.6587 64.971 44.4912 67.3619 42.5493V44.2124C67.3619 49.0662 63.4471 53.0004 58.6173 53.0004C55.4385 53.0004 52.6623 51.2888 51.1326 48.739L46.6495 51.3411C49.077 55.4476 53.5215 58.2085 58.6192 58.2085C66.31 58.2085 72.5443 51.9432 72.5443 44.2144V19.5756L67.3619 16.5708ZM58.6173 40.4506C53.7874 40.4506 49.8726 36.5164 49.8726 31.6627C49.8726 26.8089 53.7874 22.8747 58.6173 22.8747C63.4471 22.8747 67.3619 26.8089 67.3619 31.6627C67.3619 36.5164 63.4471 40.4506 58.6173 40.4506Z" fill="#101010"/>
<path d="M73.4088 6.74854L67.3633 9.25384L82.9086 18.2741L88.0891 15.2674L73.4088 6.74854Z" fill="#E52421"/>
<path d="M77.7288 15.2677L82.9112 18.2744L114 0.23584L77.7288 15.2677Z" fill="#ED6C71"/>
</svg>
